<svg width="12" height="12" viewBox="0 0 12 12" fill="none" xmlns="http://www.w3.org/2000/svg">
<path d="M2.16121 11.1394C2.15935 11.1442 2.13751 11.1849 2.14047 11.179C2.15719 11.1505 2.16697 11.1295 2.17985 11.1028C2.17442 11.1137 2.16759 11.1258 2.16121 11.1394ZM2.18239 11.1023C2.17522 11.1169 2.19634 11.0705 2.18711 11.0888C2.18474 11.0937 2.18202 11.0983 2.17985 11.1028C2.20414 11.0539 2.21452 11.0365 2.18239 11.1023ZM9.05264 0.634494C9.04942 0.637796 9.05549 0.632772 9.04935 0.639193C9.04301 0.645934 9.03518 0.653104 9.02533 0.664396C9.01502 0.676356 9.02073 0.671626 9.00082 0.695302C8.95504 0.750285 8.89765 0.824252 8.85282 0.87978C8.83844 0.89758 8.84352 0.886918 8.83402 0.898447C8.81505 0.9213 8.79872 0.944356 8.77948 0.967223C8.77293 0.974908 8.77752 0.962188 8.77065 0.970275C8.73467 1.01262 8.70131 1.05638 8.66551 1.10039C8.48579 1.31973 8.31093 1.53639 8.1308 1.75744C8.09691 1.79891 8.06027 1.83967 8.02071 1.88505C7.99065 1.91959 7.95984 1.95652 7.93489 1.99305C7.92865 2.00226 7.94269 2.0058 7.94242 2.0082C7.93532 2.04583 7.92102 2.01934 7.90471 2.03431C7.83902 2.0952 7.7778 2.1708 7.73145 2.24122C7.72082 2.2574 7.729 2.26233 7.73341 2.2662C7.74459 2.27598 7.71574 2.26028 7.70474 2.27026C7.68796 2.28555 7.66393 2.32159 7.6527 2.3341C7.63048 2.3587 7.62738 2.36336 7.60797 2.38842C7.58098 2.42311 7.54318 2.45755 7.51815 2.49711C7.51287 2.50561 7.5355 2.50721 7.5285 2.52188C7.52152 2.53649 7.4945 2.56954 7.48287 2.57748C7.47097 2.58571 7.46277 2.57149 7.45856 2.57127C7.42323 2.56886 7.42574 2.63309 7.42293 2.63897C7.36838 2.74111 7.29109 2.80421 7.22727 2.88876C7.17825 2.95409 7.13407 3.0279 7.08664 3.08954C7.03111 3.1616 6.97383 3.21699 6.9226 3.2892C6.91734 3.29683 6.94581 3.30532 6.93945 3.31469C6.86922 3.41522 6.79521 3.51104 6.70704 3.59606C6.69814 3.60458 6.68652 3.57597 6.67636 3.58348C6.65017 3.60339 6.61457 3.62579 6.5874 3.65323C6.52012 3.72122 6.53439 3.86446 6.44759 3.90465C6.41779 3.91834 6.41069 3.87743 6.39941 3.91388C6.39723 3.92204 6.4241 3.92976 6.41876 3.94081C6.39605 3.98756 6.356 4.02692 6.33694 4.0758C6.33313 4.08579 6.3539 4.09857 6.35569 4.10358C6.36919 4.14468 6.29859 4.14181 6.28981 4.14627C6.22416 4.18103 6.2045 4.22808 6.16625 4.27813C6.15784 4.2896 6.19415 4.29605 6.18684 4.30784C6.14725 4.36927 6.10006 4.42839 6.04542 4.47655C6.03325 4.48683 6.01876 4.45775 6.01176 4.46188C5.98118 4.48049 6.02034 4.5196 5.99185 4.53804C5.98588 4.54196 5.96819 4.52392 5.96527 4.52325C5.91973 4.51278 5.95792 4.56284 5.95629 4.5679C5.93343 4.6296 5.85829 4.62276 5.82906 4.67682C5.826 4.68331 5.86073 4.68944 5.84964 4.70652C5.77529 4.82092 5.68295 4.93038 5.58105 5.02271C5.56534 5.03698 5.55464 5.01049 5.5514 5.00959C5.50081 4.9982 5.54303 5.04754 5.54097 5.05449C5.52926 5.08854 5.49463 5.1043 5.48187 5.13121C5.46593 5.16485 5.47086 5.20871 5.44651 5.23686C5.44389 5.23988 5.44129 5.24291 5.4387 5.24595C5.41181 5.27752 5.4062 5.33229 5.4452 5.34637C5.47528 5.35724 5.51785 5.35136 5.54261 5.3716C5.66966 5.47548 5.81423 5.55688 5.93391 5.66943C5.96673 5.70027 5.99863 5.73395 6.027 5.77062C6.02886 5.7729 6.00646 5.79605 6.01018 5.80054C6.05562 5.85435 6.07344 5.80666 6.14506 5.7839C6.16302 5.77824 6.15 5.85701 6.14937 5.86365C6.14726 5.88611 6.1104 5.91784 6.11118 5.92318C6.11767 5.95556 6.17005 5.88609 6.2095 5.86367C6.22715 5.85364 6.21572 5.86585 6.22063 5.88555C6.22446 5.89915 6.23978 5.89635 6.243 5.91044C6.24994 5.94328 6.21435 6.01015 6.27004 5.99593C6.27756 5.99318 6.32207 5.91843 6.34989 5.94329C6.36109 5.95336 6.41558 5.99018 6.42753 6.00563C6.44365 6.0266 6.42092 6.05126 6.42021 6.0777C6.41952 6.10348 6.40465 6.11641 6.39651 6.15901C6.38532 6.2183 6.45535 6.10747 6.47213 6.1015C6.48884 6.0958 6.50107 6.14215 6.50235 6.15609C6.50343 6.16993 6.48425 6.17804 6.4873 6.18758C6.50824 6.25025 6.54367 6.14865 6.56982 6.14158C6.63136 6.12542 6.60184 6.22261 6.62711 6.25207C6.63392 6.25993 6.63979 6.23729 6.64834 6.24084C6.68214 6.25534 6.68254 6.29242 6.73184 6.29391C6.74008 6.29403 6.79991 6.26681 6.79332 6.31341C6.79231 6.32012 6.77173 6.33451 6.78103 6.34778C6.79535 6.36779 6.82592 6.39596 6.85042 6.40371C6.86849 6.40933 6.87409 6.36584 6.88563 6.3889C6.89052 6.39913 6.8625 6.40674 6.87317 6.42442C6.88384 6.44211 6.92391 6.46966 6.93947 6.47977C6.95492 6.48963 6.96378 6.45972 6.96613 6.45897C6.98003 6.45514 7.01632 6.46408 7.01944 6.46606C7.15125 6.55655 7.23946 6.67935 7.37513 6.7569C7.38568 6.763 7.39638 6.73429 7.3982 6.73486C7.41108 6.73935 7.41257 6.74701 7.40889 6.75659C7.39798 6.78502 7.41317 6.79933 7.44123 6.81116C7.45441 6.81659 7.46169 6.79334 7.4641 6.79215C7.50087 6.77587 7.48674 6.82054 7.48434 6.83053C7.47592 6.86621 7.51107 6.84258 7.50565 6.86647C7.49685 6.90458 7.49874 6.89759 7.52288 6.86682C7.52897 6.85905 7.53546 6.85418 7.54272 6.85582C7.62709 6.87519 7.72397 6.99814 7.77342 7.03874C7.82279 7.07955 7.84181 7.08872 7.86799 7.11644C7.91546 7.1666 7.91778 7.12064 7.96193 7.13098C8.00619 7.1416 7.9355 7.20617 7.92855 7.22636C7.9218 7.24622 7.93904 7.23331 7.9388 7.24627C7.93839 7.25947 7.91745 7.26186 7.92888 7.27498C7.9406 7.28813 7.9997 7.28623 8.0169 7.27295C8.05291 7.24448 8.06263 7.19412 8.09021 7.2342C8.09178 7.23652 8.07087 7.25138 8.0774 7.2593C8.13158 7.32125 8.19923 7.3709 8.25549 7.43052C8.26301 7.43867 8.24023 7.45407 8.24441 7.45906C8.26712 7.48523 8.30875 7.53052 8.33347 7.5548C8.33658 7.55785 8.34012 7.56078 8.34409 7.56357C8.36892 7.58115 8.38045 7.55589 8.40752 7.55165C8.41566 7.55039 8.4227 7.57805 8.43322 7.56997C8.46757 7.54371 8.47793 7.49392 8.50952 7.53967C8.51087 7.54173 8.49205 7.55583 8.49765 7.56161C8.53407 7.59882 8.5638 7.56822 8.61094 7.5967C8.63415 7.61082 8.66163 7.64213 8.6882 7.67146C8.71262 7.69841 8.69903 7.75883 8.73375 7.76966C8.76178 7.77841 8.79789 7.77164 8.82127 7.78941C8.83473 7.79963 8.8478 7.81021 8.85882 7.8219C8.86598 7.82975 8.85039 7.84006 8.8501 7.84254C8.84955 7.87926 8.88456 7.85351 8.89109 7.85629C8.96036 7.88761 8.99251 7.94784 9.06703 7.96647C9.06971 7.96709 9.0959 7.93716 9.09461 7.97209C9.09448 7.97442 9.06507 7.97539 9.09138 7.99626C9.11768 8.01729 9.1581 8.07157 9.20576 8.08433C9.21738 8.08741 9.25782 8.0798 9.26277 8.11248C9.26317 8.11687 9.2546 8.12347 9.25475 8.13074C9.25557 8.15426 9.283 8.12875 9.27859 8.16399C9.27416 8.19928 9.29002 8.23755 9.34084 8.24739C9.34254 8.24766 9.36784 8.23122 9.37964 8.24018C9.39852 8.25453 9.42282 8.2785 9.44318 8.29265C9.45446 8.30047 9.46429 8.28596 9.47596 8.29319C9.53479 8.32965 9.57128 8.37133 9.63159 8.42048C9.6441 8.43023 9.69188 8.44017 9.70742 8.47041C9.72471 8.50342 9.65608 8.5413 9.72944 8.56989C9.81882 8.60278 9.90576 8.62854 9.98173 8.68598C10.0254 8.71897 10.0689 8.75198 10.1194 8.77904C10.1237 8.78132 10.1465 8.77557 10.1556 8.78241C10.169 8.79257 10.1719 8.80456 10.1814 8.81194C10.2212 8.84296 10.2627 8.86454 10.3018 8.89371C10.3166 8.9047 10.3074 8.90668 10.3251 8.91957C10.343 8.93248 10.3602 8.93404 10.3822 8.95481C10.3851 8.9576 10.3878 8.96072 10.3904 8.96407C10.4127 8.99321 10.4581 9.01457 10.4902 9.03239C10.4963 9.03578 10.4935 9.02758 10.4963 9.0287C10.5088 9.03447 10.5167 9.04546 10.5287 9.05071C10.5315 9.0519 10.5345 9.04804 10.5369 9.04888C10.558 9.05616 10.5806 9.08523 10.5851 9.09057C10.6006 9.10946 10.6129 9.11168 10.6262 9.12415C10.6395 9.13636 10.6161 9.12305 10.6325 9.13616C10.6667 9.16341 10.7135 9.19496 10.7499 9.22032C10.7644 9.23034 10.7567 9.2208 10.7588 9.22212C10.7638 9.2255 10.7688 9.22897 10.7736 9.23244C10.8132 9.26069 10.859 9.28719 10.897 9.31761C10.9002 9.32022 10.9017 9.32693 10.8882 9.31878C10.8746 9.31064 10.8556 9.29588 10.8365 9.28482C10.8319 9.28204 10.8039 9.2714 10.7998 9.26958C10.7708 9.25551 10.774 9.2429 10.7731 9.24133C10.7617 9.22441 10.727 9.211 10.7182 9.20642C10.6798 9.18473 10.6497 9.16239 10.6174 9.14442C10.5964 9.13277 10.5868 9.14189 10.571 9.13163C10.5184 9.09791 10.5128 9.06782 10.4521 9.05185C10.4391 9.04861 10.439 9.07003 10.4089 9.03436C10.4065 9.0315 10.3864 9.00281 10.365 8.99978C10.3623 8.99943 10.3589 9.00419 10.3558 9.0029C10.3356 8.99419 10.3261 8.98268 10.3047 8.9722C10.2833 8.96172 10.2567 8.94989 10.2351 8.93392C10.2221 8.9243 10.212 8.9026 10.2074 8.89573C10.1944 8.87624 10.1658 8.87629 10.1613 8.8593C10.1598 8.85302 10.163 8.84902 10.1666 8.84518C10.1793 8.83166 10.1539 8.82796 10.1416 8.84178C10.1316 8.85297 10.1148 8.85546 10.1023 8.84724C10.0442 8.80918 9.98867 8.76778 9.92896 8.73096C9.9206 8.72589 9.92153 8.74164 9.91233 8.73651C9.87354 8.71497 9.84641 8.68658 9.80545 8.66547C9.74259 8.63321 9.67708 8.58713 9.61851 8.5476C9.61612 8.54598 9.61379 8.54436 9.61156 8.54272C9.60034 8.53438 9.60633 8.52752 9.59965 8.51973C9.5745 8.49059 9.57158 8.52452 9.56021 8.52331C9.51062 8.51695 9.54769 8.4577 9.50339 8.43034C9.50096 8.42883 9.45085 8.44197 9.4451 8.44173C9.41097 8.43911 9.44862 8.42812 9.43492 8.41581C9.40978 8.3934 9.39573 8.37223 9.35553 8.36052C9.34378 8.35708 9.305 8.36342 9.29781 8.33474C9.29716 8.33083 9.30619 8.32049 9.30469 8.31855C9.27669 8.28401 9.25016 8.31957 9.22054 8.31914C9.19078 8.3187 9.17687 8.27256 9.1758 8.26074C9.17273 8.23055 9.19468 8.26096 9.19695 8.25964C9.22347 8.24412 9.19782 8.23278 9.1816 8.21928C9.20543 8.18028 9.17945 8.16592 9.16456 8.20543C9.16329 8.20973 9.17926 8.21527 9.1816 8.21928C9.14028 8.24566 9.10898 8.23349 9.10404 8.17864C9.10191 8.15299 9.12851 8.14236 9.08113 8.12089C9.05963 8.11126 9.04795 8.14307 9.02558 8.13929C8.97425 8.13084 8.94154 8.07215 8.89858 8.0497C8.88293 8.04166 8.88598 8.06665 8.87486 8.06174C8.85315 8.05226 8.83936 8.03495 8.82133 8.022C8.80788 8.01234 8.79641 8.03346 8.78224 8.02488C8.71797 7.98657 8.67026 7.93962 8.60498 7.89658C8.57336 7.87574 8.50958 7.84893 8.47826 7.82566C8.42414 7.78575 8.37296 7.71143 8.32 7.68615C8.28541 7.66971 8.27844 7.69384 8.25548 7.69827C8.21097 7.70699 8.19746 7.63031 8.19653 7.61878C8.21106 7.61292 8.212 7.60317 8.20097 7.61429C8.19841 7.61687 8.19663 7.6188 8.19653 7.61878C8.19522 7.6111 8.1454 7.57117 8.13173 7.56766C8.12436 7.56588 8.11385 7.58733 8.11025 7.58605C8.03444 7.55851 7.96533 7.52171 7.90393 7.47329C7.88957 7.46197 7.90812 7.44314 7.89551 7.4299C7.86022 7.39189 7.81401 7.40127 7.76682 7.39453C7.76228 7.39388 7.75795 7.39308 7.75385 7.3921C7.69163 7.37736 7.66417 7.28569 7.6333 7.22969C7.61311 7.1931 7.55728 7.24908 7.52155 7.2274C7.48678 7.2063 7.46627 7.17313 7.42567 7.14157C7.39756 7.11969 7.3342 7.08722 7.29866 7.07108C7.27055 7.05842 7.26315 7.0371 7.23503 7.02874C7.23121 7.02764 7.21919 7.05109 7.21765 7.05127C7.17372 7.05963 7.22312 7.01545 7.22442 7.00252C7.2291 6.95556 7.22994 6.92907 7.1856 6.92248C7.17535 6.92093 7.09914 6.98172 7.08176 6.9771C7.05956 6.97058 7.08566 6.9478 7.06203 6.94163C7.05999 6.94113 7.04838 6.95798 7.03718 6.94938C6.98485 6.90953 6.93333 6.86033 6.87534 6.82361C6.86746 6.81857 6.85798 6.85245 6.84626 6.84558C6.79128 6.81334 6.73456 6.77356 6.69303 6.72616C6.68294 6.71444 6.70438 6.70043 6.70588 6.69281C6.71393 6.64681 6.65512 6.68069 6.64997 6.67944C6.53994 6.64091 6.50033 6.54515 6.39077 6.50267C6.38465 6.50044 6.30613 6.52876 6.32231 6.46904C6.32281 6.4671 6.32669 6.45293 6.32677 6.44059C6.32694 6.41378 6.29407 6.46299 6.27425 6.44493C6.25684 6.42928 6.21443 6.42477 6.20798 6.37909C6.20591 6.3646 6.22109 6.30232 6.16909 6.32415C6.16557 6.32573 6.06488 6.38772 6.09451 6.31744C6.09948 6.30584 6.14745 6.24289 6.09521 6.25553C6.0851 6.25809 6.08467 6.27951 6.06365 6.27832C6.03143 6.27643 6.01316 6.238 5.96496 6.2474C5.95637 6.24917 5.90452 6.27853 5.91159 6.23358C5.91294 6.22644 5.93288 6.20847 5.9259 6.19998C5.89258 6.15931 5.83925 6.14329 5.80812 6.09902C5.79711 6.08333 5.82926 6.05345 5.82049 6.03318C5.81142 6.01271 5.78628 5.98153 5.75863 5.98604C5.73102 5.99075 5.70914 6.05882 5.68158 6.04605C5.67814 6.04445 5.67473 6.04279 5.67135 6.04111C5.55744 5.98447 5.47816 5.88149 5.37896 5.80353C5.36393 5.79171 5.36259 5.82075 5.33951 5.80486C5.29907 5.77701 5.2412 5.74192 5.18713 5.70265C5.14288 5.6705 5.08174 5.67167 5.03747 5.70379C5.03502 5.70544 5.01318 5.68283 5.00857 5.68641C4.95342 5.73015 4.99964 5.75008 5.0202 5.82254C5.02527 5.84084 4.94642 5.82502 4.94036 5.82425C4.918 5.82131 4.88736 5.784 4.88209 5.78471C4.84977 5.7901 4.91795 5.84438 4.93889 5.88452C4.94843 5.90281 4.93674 5.89107 4.91652 5.89511C4.90271 5.89861 4.90509 5.91417 4.89077 5.91687C4.85777 5.92283 4.79238 5.88478 4.80507 5.94058C4.80679 5.94773 4.88133 5.99477 4.85512 6.02276C4.84446 6.03399 4.80532 6.08767 4.78986 6.09867C4.78653 6.10103 4.78332 6.10161 4.78018 6.10113C4.77227 6.10005 4.76527 6.09223 4.76125 6.08723C4.75934 6.0849 4.75802 6.08331 4.75758 6.08339C4.73341 6.08764 4.7083 6.09059 4.68587 6.08064C4.67379 6.07529 4.65976 6.06864 4.63729 6.06376C4.57846 6.05098 4.68644 6.1238 4.69245 6.14092C4.69784 6.15792 4.65208 6.16809 4.6379 6.16926C4.62384 6.17024 4.61632 6.15012 4.60658 6.15305C4.54289 6.17271 4.64432 6.21097 4.65029 6.23748C4.6644 6.29984 4.56877 6.26665 4.53784 6.29211C4.52964 6.29883 4.55209 6.30533 4.54841 6.31384C4.53272 6.34778 4.49709 6.34574 4.49363 6.39614C4.49339 6.40478 4.51892 6.46473 4.47284 6.45673C4.46618 6.4555 4.45199 6.43475 4.43871 6.44364C4.41905 6.4567 4.38914 6.48814 4.38114 6.5122C4.37514 6.53014 4.41882 6.53689 4.39565 6.54784C4.38542 6.55245 4.37807 6.52443 4.36036 6.53459C4.34224 6.54532 4.31386 6.58529 4.30379 6.60035C4.28968 6.6215 4.32646 6.64016 4.32066 6.66492C4.31879 6.67295 4.31682 6.67928 4.31606 6.68057C4.22521 6.80967 4.10069 6.89981 4.02618 7.03535C4.02313 7.04108 4.0305 7.04675 4.03763 7.05098C4.04491 7.05529 4.04893 7.0637 4.04183 7.06831C4.03791 7.07086 4.03302 7.07051 4.02744 7.06846C3.99882 7.05794 3.98464 7.07387 3.97356 7.10228C3.96582 7.12239 4.00688 7.14633 3.98557 7.14951C3.97501 7.15108 3.96023 7.14706 3.95505 7.14599C3.91908 7.13872 3.94427 7.17265 3.92002 7.16826C3.88145 7.16098 3.88858 7.1626 3.92035 7.18566C3.92836 7.19147 3.93349 7.19778 3.93213 7.20508C3.91598 7.28919 3.80078 7.39047 3.76487 7.44388C3.72885 7.49622 3.72185 7.51603 3.69728 7.54491C3.65347 7.59716 3.69921 7.59432 3.69506 7.63855C3.69092 7.68295 3.61721 7.62225 3.59634 7.61811C3.57574 7.61413 3.59103 7.62943 3.57803 7.63108C3.56485 7.63265 3.55971 7.61199 3.54821 7.62547C3.53659 7.63934 3.54729 7.69842 3.56326 7.71307C3.58545 7.73339 3.61492 7.74105 3.62277 7.75327C3.63349 7.76994 3.59943 7.7554 3.58647 7.77039C3.53443 7.83373 3.49811 7.90909 3.45073 7.97555C3.44417 7.98445 3.42466 7.96524 3.42061 7.97038C3.40954 7.98465 3.40484 7.99515 3.40436 8.00357C3.40353 8.0286 3.39578 8.0478 3.37257 8.0572C3.35818 8.06302 3.34684 8.07506 3.33935 8.09367C3.32802 8.12186 3.35517 8.12741 3.36548 8.15272C3.36829 8.16035 3.34346 8.17311 3.35368 8.18139C3.37945 8.20233 3.41517 8.2067 3.41356 8.22583C3.41212 8.2429 3.38637 8.227 3.37697 8.24132C3.34867 8.2863 3.38536 8.30822 3.36813 8.36121C3.35949 8.38762 3.33526 8.42114 3.31267 8.45386C3.292 8.4838 3.2302 8.48484 3.22761 8.52113C3.22551 8.55046 3.24046 8.58411 3.22844 8.61095C3.2219 8.62557 3.2149 8.63996 3.20616 8.65338C3.20011 8.66269 3.18631 8.64979 3.18387 8.65019C3.14788 8.65846 3.18081 8.68692 3.17961 8.69401C3.1645 8.77008 3.1143 8.81262 3.11256 8.89156C3.11256 8.89432 3.14783 8.91307 3.11343 8.91987C3.11113 8.92027 3.10336 8.89177 3.08913 8.92228C3.07483 8.95246 3.03194 9.00327 3.02996 9.05403C3.02974 9.06638 3.04616 9.10366 3.01574 9.11571C3.01159 9.11716 3.00305 9.11025 2.996 9.11207C2.97349 9.11819 3.00479 9.13884 2.96954 9.14257C2.934 9.14699 2.90028 9.17228 2.90256 9.22365C2.90261 9.22527 2.92431 9.24604 2.9186 9.25939C2.9094 9.28021 2.89103 9.31021 2.88187 9.33364C2.87758 9.34474 2.89563 9.34387 2.89526 9.34589C2.87386 9.42253 2.83839 9.47113 2.80187 9.54696C2.79573 9.55976 2.79626 9.61107 2.77059 9.63298C2.7426 9.65756 2.68957 9.5998 2.6792 9.67754C2.66801 9.77229 2.66353 9.86309 2.62573 9.95069C2.60391 10.0012 2.58214 10.0515 2.56797 10.1068C2.5667 10.1117 2.57733 10.1328 2.57291 10.1434C2.56617 10.159 2.55527 10.1647 2.55047 10.1754C2.52952 10.2224 2.51905 10.2665 2.49972 10.3124C2.49264 10.3294 2.48827 10.3208 2.48003 10.341C2.47155 10.3622 2.47426 10.3796 2.45983 10.4049C2.45781 10.4084 2.45545 10.4118 2.45286 10.4151C2.42987 10.4442 2.41982 10.4935 2.41023 10.5293C2.4085 10.536 2.41562 10.531 2.41518 10.5341C2.41246 10.5479 2.4042 10.558 2.40212 10.5704C2.40162 10.5734 2.40578 10.5753 2.4057 10.578C2.40328 10.6018 2.38057 10.63 2.37659 10.636C2.36215 10.6554 2.36315 10.6677 2.35429 10.6837C2.34573 10.6993 2.35238 10.6739 2.34382 10.6923C2.32557 10.7323 2.30643 10.7852 2.28995 10.8265C2.28363 10.8424 2.29097 10.8334 2.29039 10.8354C2.2817 10.8583 2.27107 10.8802 2.26406 10.8985C2.25841 10.9143 2.24668 10.9285 2.24317 10.9449C2.24122 10.954 2.24022 10.9666 2.22818 10.9924C2.22633 10.9961 2.22046 10.9989 2.22519 10.9839C2.22993 10.9688 2.23971 10.9467 2.246 10.9256C2.24716 10.9216 2.25005 10.9037 2.25152 10.8932C2.25219 10.8895 2.25259 10.8868 2.25284 10.8858C2.25931 10.8598 2.28425 10.8433 2.29065 10.8173C2.29331 10.8065 2.29487 10.7967 2.29594 10.7925C2.30807 10.7499 2.32254 10.716 2.33231 10.6801C2.3384 10.6572 2.32737 10.649 2.3332 10.632C2.35336 10.5722 2.38127 10.5604 2.3824 10.4968C2.38247 10.4833 2.36081 10.4892 2.38876 10.45C2.39058 10.4472 2.41395 10.4216 2.41199 10.3991C2.41153 10.3963 2.40632 10.3943 2.40683 10.391C2.41041 10.3691 2.41884 10.3579 2.42412 10.334C2.42973 10.3092 2.43391 10.2833 2.4447 10.2574C2.4513 10.2413 2.46939 10.2276 2.47505 10.2213C2.49083 10.2044 2.4841 10.1754 2.49952 10.1668C2.50515 10.1639 2.50977 10.166 2.51428 10.1686C2.53039 10.1776 2.5281 10.1527 2.51184 10.1439C2.4987 10.1368 2.49232 10.1212 2.49731 10.1071C2.52104 10.0401 2.54756 9.97787 2.56937 9.91072C2.57239 9.90122 2.55705 9.90592 2.55995 9.89553C2.57213 9.85167 2.59239 9.82077 2.60406 9.77392C2.62066 9.70464 2.64982 9.63065 2.67495 9.564C2.67587 9.56156 2.67681 9.55917 2.67778 9.55684C2.68336 9.54372 2.6914 9.54765 2.69751 9.53913C2.72024 9.50728 2.68616 9.51316 2.68491 9.50166C2.67926 9.45266 2.7456 9.47507 2.76236 9.42473C2.7633 9.42181 2.73883 9.37478 2.73772 9.3699C2.73225 9.3369 2.75179 9.37036 2.7605 9.35465C2.7764 9.32507 2.79372 9.30623 2.7961 9.26337C2.79689 9.25012 2.78138 9.21568 2.80741 9.20221C2.81093 9.20055 2.82324 9.20705 2.82478 9.20514C2.85188 9.17008 2.81094 9.15224 2.80468 9.12293C2.79858 9.09344 2.83979 9.06883 2.85108 9.06533C2.87006 9.05884 2.87636 9.09827 2.88494 9.08013C2.88766 9.07438 2.89016 9.06762 2.89312 9.06166C2.93644 9.0758 2.94446 9.04739 2.90276 9.04199C2.89819 9.04149 2.89649 9.0585 2.89312 9.06166C2.85783 9.02776 2.86223 8.99452 2.91477 8.97621C2.93936 8.96791 2.95604 8.99107 2.96603 8.93985C2.97005 8.91736 2.9365 8.91293 2.9349 8.89066C2.93098 8.83987 2.98132 8.79244 2.99322 8.74557C2.99715 8.72898 2.9741 8.73744 2.97624 8.72572C2.98179 8.69443 3.00453 8.67366 3.00844 8.64066C3.00865 8.63766 2.98722 8.63651 2.9903 8.627C3.014 8.55265 3.04726 8.49959 3.07483 8.42449C3.08838 8.3876 3.0995 8.32027 3.11495 8.28449C3.1415 8.22241 3.20278 8.15386 3.21467 8.09803C3.22265 8.06089 3.19763 8.05956 3.18804 8.03831C3.16932 7.99707 3.24073 7.96512 3.25233 7.96108C3.26046 7.95957 3.26444 7.96852 3.25739 7.96419C3.25446 7.96238 3.25233 7.96117 3.25233 7.96108C3.25439 7.96033 3.25838 7.95454 3.26286 7.94649L3.265 7.94162C3.27645 7.92242 3.29126 7.89114 3.29209 7.88068C3.29243 7.87306 3.27008 7.86701 3.27028 7.86317C3.2832 7.78213 3.30782 7.70457 3.34754 7.63258C3.3565 7.61635 3.37774 7.63215 3.38915 7.61754C3.42233 7.57486 3.40678 7.52893 3.40825 7.47937C3.40838 7.47484 3.40869 7.47049 3.40919 7.46631C3.41704 7.3997 3.50746 7.35881 3.56267 7.32072C3.58726 7.30335 3.54095 7.27187 3.54121 7.26908C3.54763 7.18494 3.59686 7.16387 3.6411 7.10057C3.66257 7.0698 3.69352 7.0041 3.70935 6.96721C3.72224 6.93724 3.74297 6.92994 3.75154 6.90061C3.75652 6.88206 3.72242 6.85869 3.74015 6.86609C3.7525 6.87125 3.77067 6.88789 3.77823 6.88842C3.82537 6.89222 3.85167 6.89276 3.85825 6.84736C3.85952 6.83716 3.79812 6.76138 3.80326 6.74358C3.80587 6.73482 3.81091 6.73325 3.81646 6.73329C3.8355 6.73343 3.81981 6.71346 3.83122 6.69821C3.87222 6.64387 3.9227 6.59123 3.96018 6.53319C3.96539 6.52519 3.93133 6.51562 3.9385 6.50368C3.97143 6.44869 4.01246 6.39153 4.06119 6.34987C4.07336 6.33957 4.08694 6.36153 4.0946 6.36309C4.14504 6.3716 4.11569 6.2811 4.14579 6.23974C4.19305 6.1748 4.25771 6.13429 4.29391 6.04899C4.29579 6.04215 4.27028 5.96387 4.32948 5.98093C4.33344 5.98206 4.39409 6.00036 4.37307 5.96052C4.37155 5.95803 4.33927 5.94977 4.35517 5.93334C4.37102 5.91679 4.3766 5.8747 4.42285 5.86899C4.43102 5.86797 4.45404 5.87252 4.4694 5.86753C4.48116 5.86396 4.48813 5.85447 4.47913 5.83136C4.47739 5.82752 4.41874 5.72565 4.48808 5.75676C4.49954 5.76195 4.56107 5.81195 4.55055 5.75849C4.54834 5.74824 4.52706 5.74724 4.52879 5.72637C4.53139 5.69437 4.56993 5.67785 4.56221 5.62911C4.56063 5.62063 4.53327 5.56713 4.57754 5.57586C4.58454 5.5772 4.6023 5.59799 4.61097 5.59131C4.65215 5.55985 4.67076 5.5052 4.71601 5.47545C4.73204 5.46486 4.76087 5.49799 4.78144 5.48976C4.80202 5.48149 4.83391 5.45739 4.83036 5.42946C4.83008 5.42731 4.82935 5.42524 4.82832 5.42318C4.82678 5.4201 4.82236 5.42137 4.8193 5.4198C4.78884 5.40421 4.76868 5.37228 4.74042 5.35468C4.72784 5.34698 4.7161 5.36799 4.70626 5.35845C4.69148 5.34438 4.67932 5.32921 4.66924 5.31089C4.6563 5.28736 4.68687 5.26008 4.66608 5.24308C4.63606 5.21895 4.60992 5.17312 4.56181 5.16558C4.54729 5.16361 4.51594 5.20634 4.51427 5.15935C4.51432 5.14919 4.5568 5.10185 4.49852 5.1273C4.48865 5.13158 4.4014 5.15921 4.40717 5.10407C4.40792 5.09694 4.41188 5.08052 4.41371 5.06529C4.41611 5.04532 4.4009 5.06432 4.3826 5.05598C4.34055 5.03628 4.30377 5.00516 4.26012 4.98356C4.24859 4.97808 4.24704 5.01301 4.23035 5.00379C4.18436 4.97836 4.13691 4.93351 4.10203 4.89608C4.08937 4.88234 4.11281 4.87084 4.11353 4.86784C4.12019 4.82127 4.07785 4.85851 4.06971 4.8572C4.02198 4.8456 4.00926 4.80323 3.97215 4.78377C3.95566 4.77504 3.93691 4.8014 3.9467 4.78552C3.95046 4.7794 3.95335 4.7731 3.95036 4.76851C3.92512 4.73105 3.888 4.70557 3.85121 4.68187C3.83792 4.67339 3.83473 4.70843 3.82307 4.70069C3.753 4.65371 3.68785 4.59975 3.63208 4.53699C3.62186 4.52514 3.64212 4.51277 3.64247 4.5067C3.64494 4.46453 3.59176 4.48424 3.58332 4.48341C3.5447 4.47997 3.54548 4.45635 3.52012 4.44137C3.39525 4.36778 3.26129 4.24759 3.15667 4.15751C3.02194 4.04086 2.92101 3.9408 2.78529 3.84135C2.77683 3.83513 2.77167 3.86081 2.76426 3.85592C2.70595 3.8144 2.65076 3.7687 2.59753 3.72576C2.55819 3.69427 2.51934 3.66382 2.4798 3.63566C2.47194 3.63002 2.47144 3.65513 2.4585 3.64653C2.43278 3.6296 2.39908 3.6014 2.37714 3.57585C2.36635 3.56338 2.39251 3.563 2.38134 3.55077C2.35491 3.52206 2.3262 3.49782 2.29278 3.47538C2.27897 3.46618 2.28815 3.49708 2.27103 3.4837C2.15712 3.39514 2.04283 3.30516 1.94061 3.19815C1.93476 3.19201 1.94023 3.17013 1.93162 3.15764C1.92774 3.152 1.9199 3.15367 1.91567 3.15906C1.90994 3.16635 1.89949 3.16805 1.89212 3.16242C1.72768 3.03695 1.57436 2.90363 1.40969 2.77565C1.40276 2.77021 1.40884 2.7884 1.39546 2.77779C1.31611 2.71543 1.23903 2.65663 1.16131 2.58799C1.15382 2.58123 1.16438 2.5729 1.1398 2.55732C1.13592 2.55483 1.09716 2.52902 1.08723 2.52464C1.08585 2.52409 1.08921 2.5334 1.07796 2.52515C1.0104 2.47565 0.938397 2.42089 0.870221 2.37264C0.858849 2.36469 0.872393 2.37027 0.864326 2.36469C0.808557 2.32685 0.745162 2.28865 0.685732 2.26284C0.68523 2.26262 0.68458 2.26222 0.684087 2.26201C0.671886 2.25677 0.664776 2.25355 0.660198 2.25139C0.645105 2.24425 0.629001 2.23176 0.612846 2.23599C0.615455 2.2312 0.619563 2.2314 0.623126 2.23234C0.627395 2.23346 0.630951 2.23328 0.635322 2.2339C0.644613 2.23523 0.654703 2.23792 0.669886 2.24092C0.68111 2.24311 0.680707 2.24216 0.691805 2.24417C0.695536 2.24481 0.701409 2.24604 0.709301 2.24783C0.780937 2.26398 0.869992 2.30065 0.935072 2.33051C0.956339 2.34041 0.944149 2.33733 0.958056 2.34406C0.985914 2.35777 1.01159 2.36834 1.0382 2.38237C1.04675 2.38693 1.03365 2.38579 1.04264 2.39057C1.09361 2.41801 1.1408 2.44046 1.19234 2.46868C1.44025 2.60558 1.68055 2.75069 1.92162 2.90116C2.00222 2.95133 2.09196 3.02147 2.17916 3.06849C2.18937 3.07385 2.19118 3.05935 2.19369 3.05957C2.23295 3.06351 2.2072 3.07971 2.22378 3.09433C2.28988 3.15234 2.37107 3.20624 2.44692 3.24713C2.47937 3.2646 2.46609 3.21987 2.48694 3.25318C2.48835 3.25547 2.47176 3.26447 2.47886 3.27109C2.49499 3.28602 2.53204 3.30604 2.54603 3.31655C2.57276 3.33684 2.57757 3.33997 2.60456 3.35754C2.64098 3.38135 2.67793 3.41569 2.71984 3.43796C2.72866 3.44236 2.72832 3.41999 2.74355 3.42592C2.75359 3.42985 2.77208 3.44149 2.78642 3.45244C2.79359 3.45795 2.79974 3.46328 2.80287 3.46715C2.81182 3.47825 2.79844 3.48767 2.79825 3.49193C2.79822 3.52726 2.86196 3.5199 2.86801 3.52233C2.97596 3.57098 3.04015 3.64138 3.13099 3.70143C3.1968 3.74452 3.27676 3.78692 3.3393 3.8295C3.41325 3.87997 3.4744 3.93591 3.5474 3.98195C3.55524 3.98692 3.56229 3.95811 3.57191 3.96378C3.67585 4.02846 3.77453 4.09713 3.8646 4.18184C3.87364 4.19039 3.84554 4.20311 3.85361 4.21298C3.87502 4.23841 3.89894 4.2729 3.92749 4.2986C3.9984 4.36244 4.14007 4.34145 4.18366 4.42633C4.1986 4.45549 4.15825 4.46448 4.19508 4.47412C4.20326 4.47582 4.20986 4.44881 4.22102 4.45345C4.26845 4.47396 4.31128 4.51376 4.35997 4.53008C4.36991 4.53315 4.38148 4.51227 4.3864 4.51007C4.42675 4.49458 4.42653 4.56504 4.43131 4.57368C4.46828 4.63766 4.51716 4.65619 4.56829 4.69223C4.57989 4.70021 4.58518 4.66392 4.59701 4.67031C4.65912 4.70694 4.71999 4.7521 4.77057 4.80525C4.7814 4.81712 4.75307 4.8325 4.75749 4.83939C4.77768 4.86942 4.81451 4.82879 4.83386 4.85627C4.83794 4.86205 4.82057 4.88044 4.81992 4.88344C4.81094 4.92912 4.85942 4.88923 4.86461 4.89054C4.92663 4.91086 4.92277 4.98643 4.9781 5.01397C4.98472 5.01673 4.98971 4.98178 5.00725 4.99236C5.02034 5.00022 5.03698 4.99747 5.04573 4.98495C5.10686 4.89751 5.18963 4.7693 5.27606 4.73268C5.35362 4.69959 5.32244 4.7915 5.3699 4.75734C5.39246 4.74098 5.34803 4.67125 5.34976 4.66427C5.36859 4.59945 5.42364 4.58477 5.45 4.53389C5.45536 4.52336 5.4235 4.5135 5.42838 4.50475C5.44513 4.47467 5.47849 4.4548 5.49679 4.42753C5.50487 4.41531 5.48468 4.40299 5.49417 4.39354C5.51741 4.37083 5.54323 4.35442 5.58041 4.34315C5.5838 4.34213 5.59526 4.37498 5.61092 4.35687C5.63622 4.32757 5.68357 4.30297 5.69328 4.25474C5.69605 4.24031 5.65373 4.20724 5.70067 4.20737C5.71052 4.20739 5.7567 4.25229 5.73334 4.19301C5.72935 4.18294 5.70538 4.09428 5.76039 4.10211C5.76754 4.10313 5.78367 4.10773 5.7987 4.11014C5.81875 4.11336 5.80033 4.09757 5.80917 4.07929C5.83081 4.03753 5.86388 4.00119 5.88682 3.95888C5.89287 3.94756 5.85819 3.94477 5.86798 3.92849C5.89509 3.88367 5.94218 3.83769 5.98154 3.80363C5.9961 3.79114 6.00663 3.81538 6.00955 3.81593C6.05635 3.8241 6.01998 3.77977 6.02206 3.77216C6.03543 3.72522 6.07827 3.7145 6.09947 3.67801C6.10898 3.66177 6.08324 3.64174 6.09889 3.65219C6.10489 3.6562 6.11112 3.65933 6.11588 3.65639C6.15442 3.63267 6.18286 3.59497 6.20752 3.56011C6.21616 3.54739 6.18157 3.54262 6.18973 3.53141C6.23941 3.46397 6.29779 3.39975 6.36319 3.34694C6.3755 3.3371 6.38688 3.35788 6.39295 3.35855C6.43474 3.36318 6.41766 3.30963 6.41873 3.30083C6.42406 3.26239 6.44784 3.26392 6.46436 3.23887C6.54471 3.11686 6.67317 2.98805 6.76926 2.88857C6.89518 2.75853 7.00003 2.66573 7.11086 2.53404C7.11782 2.52582 7.09237 2.51922 7.09798 2.51197C7.17491 2.41848 7.26313 2.33499 7.34039 2.24271C7.34681 2.23511 7.3211 2.23274 7.33114 2.21999C7.3517 2.19373 7.38161 2.16406 7.40914 2.14409C7.42236 2.13456 7.42056 2.16046 7.43352 2.15065C7.46369 2.12762 7.4938 2.09716 7.51806 2.06723C7.52842 2.05441 7.49676 2.06046 7.51148 2.0448C7.61242 1.93653 7.71221 1.83333 7.83384 1.74048C7.8373 1.738 7.84449 1.73881 7.85239 1.73946C7.86004 1.73991 7.86832 1.73995 7.87483 1.7364C7.88082 1.73312 7.88008 1.72518 7.8752 1.72039C7.86863 1.71394 7.86819 1.70344 7.87461 1.69684C8.02019 1.54723 8.17336 1.41113 8.3258 1.26585C8.33229 1.25972 8.31339 1.26334 8.32591 1.2516C8.4001 1.18183 8.4711 1.11451 8.55317 1.04941C8.5614 1.04282 8.56725 1.05489 8.5877 1.03284C8.59118 1.02904 8.62302 0.996664 8.63014 0.986792C8.63097 0.985499 8.62114 0.98744 8.63187 0.977499C8.69467 0.919437 8.76285 0.860712 8.82825 0.806217C8.83912 0.797084 8.83003 0.809214 8.83774 0.802673C8.89085 0.757214 8.94692 0.706797 8.99982 0.666268C9.03509 0.639306 9.02335 0.650192 9.04247 0.636286C9.04534 0.63402 9.06601 0.61901 9.06844 0.617856C9.07038 0.616752 9.07096 0.618134 9.07279 0.616851C9.07311 0.616627 9.07343 0.616399 9.07376 0.61617C9.06695 0.621583 9.05569 0.631059 9.05264 0.634494ZM11.0275 9.4122C10.9594 9.36652 10.9235 9.33142 10.9947 9.3854C11.0077 9.39501 10.9659 9.3659 10.9822 9.37824C11.0127 9.40046 11.0336 9.41446 11.0645 9.43751C11.0601 9.43441 11.0311 9.41435 11.0275 9.4122ZM2.37145 10.5919C2.36391 10.601 2.35651 10.6344 2.36598 10.6225C2.37397 10.6124 2.38108 10.5807 2.37145 10.5919ZM10.5415 9.08516C10.5487 9.09491 10.5791 9.10977 10.5699 9.09775C10.5626 9.08794 10.5326 9.07291 10.5415 9.08516ZM10.2946 8.92118C10.2702 8.89155 10.2394 8.92505 10.2779 8.9391C10.2802 8.93992 10.2961 8.92289 10.2946 8.92118ZM2.47122 10.3122C2.49411 10.2817 2.4544 10.2595 2.45001 10.3002C2.44976 10.3026 2.46966 10.3138 2.47122 10.3122ZM10.0143 8.74776C9.99819 8.71545 9.96452 8.72533 9.9752 8.74903C9.98619 8.7722 10.0192 8.7574 10.0143 8.74776ZM2.56267 9.95983C2.54296 9.97541 2.56502 10.004 2.57332 9.9969C2.6006 9.97435 2.58307 9.94406 2.56267 9.95983ZM6.58165 6.29378C6.56971 6.31185 6.57723 6.31907 6.58641 6.31183C6.59606 6.30422 6.58846 6.28355 6.58165 6.29378ZM4.49745 6.24568C4.47279 6.22853 4.46771 6.24954 4.49377 6.26093C4.49532 6.26161 4.505 6.25104 4.49745 6.24568ZM5.92906 5.73545C5.89605 5.75666 5.91113 5.787 5.93188 5.79214C5.96308 5.79987 5.95765 5.72077 5.92906 5.73545ZM5.03505 5.58957C5.06463 5.57581 5.07498 5.65443 5.04413 5.64382C5.00608 5.63086 5.01502 5.5989 5.03505 5.58957ZM0.630147 2.25129C0.629969 2.25118 0.628639 2.25043 0.625708 2.24868C0.624767 2.24811 0.623843 2.24751 0.622894 2.24696C0.620731 2.24571 0.61647 2.24322 0.61217 2.23921C0.61173 2.2388 0.611668 2.23813 0.612013 2.23763C0.613645 2.24067 0.629487 2.25086 0.630147 2.25129ZM0.612013 2.23763C0.612048 2.23767 0.611976 2.2376 0.612013 2.23763ZM0.612013 2.23763C0.611516 2.23749 0.611109 2.23711 0.610975 2.23661C0.610602 2.23522 0.611017 2.23659 0.612013 2.23763ZM9.07376 0.61617C9.0762 0.614229 9.0787 0.612385 9.07947 0.61198C9.07931 0.612075 9.07962 0.611897 9.07947 0.61198C9.08081 0.611097 9.08083 0.611124 9.07947 0.61198C9.0777 0.613142 9.07566 0.614832 9.07376 0.61617Z" fill="black"/>
<path d="M2.17985 11.1028C2.16697 11.1295 2.15719 11.1505 2.14047 11.179C2.13751 11.1849 2.15935 11.1442 2.16121 11.1394C2.16759 11.1258 2.17442 11.1137 2.17985 11.1028ZM2.17985 11.1028C2.18202 11.0983 2.18474 11.0937 2.18711 11.0888C2.19634 11.0705 2.17522 11.1169 2.18239 11.1023C2.21452 11.0365 2.20414 11.0539 2.17985 11.1028ZM9.1816 8.21928C9.19782 8.23278 9.22347 8.24412 9.19695 8.25964C9.19468 8.26096 9.17273 8.23055 9.1758 8.26074C9.17687 8.27256 9.19078 8.3187 9.22054 8.31914C9.25016 8.31957 9.27669 8.28401 9.30469 8.31855C9.30619 8.32049 9.29716 8.33083 9.29781 8.33474C9.305 8.36342 9.34378 8.35708 9.35553 8.36052C9.39573 8.37223 9.40978 8.3934 9.43492 8.41581C9.44862 8.42812 9.41097 8.43911 9.4451 8.44173C9.45085 8.44197 9.50096 8.42883 9.50339 8.43034C9.54769 8.4577 9.51062 8.51695 9.56021 8.52331C9.57158 8.52452 9.5745 8.49059 9.59965 8.51973C9.60633 8.52752 9.60034 8.53438 9.61156 8.54272C9.61379 8.54436 9.61612 8.54598 9.61851 8.5476C9.67708 8.58713 9.74259 8.63321 9.80545 8.66547C9.84641 8.68658 9.87354 8.71497 9.91233 8.73651C9.92153 8.74164 9.9206 8.72589 9.92896 8.73096C9.98867 8.76778 10.0442 8.80918 10.1023 8.84724C10.1148 8.85546 10.1316 8.85297 10.1416 8.84178C10.1539 8.82796 10.1793 8.83166 10.1666 8.84518C10.163 8.84902 10.1598 8.85302 10.1613 8.8593C10.1658 8.87629 10.1944 8.87624 10.2074 8.89573C10.212 8.9026 10.2221 8.9243 10.2351 8.93392C10.2567 8.94989 10.2833 8.96172 10.3047 8.9722C10.3261 8.98268 10.3356 8.99419 10.3558 9.0029C10.3589 9.00419 10.3623 8.99943 10.365 8.99978C10.3864 9.00281 10.4065 9.0315 10.4089 9.03436C10.439 9.07003 10.4391 9.04861 10.4521 9.05185C10.5128 9.06782 10.5184 9.09791 10.571 9.13163C10.5868 9.14189 10.5964 9.13277 10.6174 9.14442C10.6497 9.16239 10.6798 9.18473 10.7182 9.20642C10.727 9.211 10.7617 9.22441 10.7731 9.24133C10.774 9.2429 10.7708 9.25551 10.7998 9.26958C10.8039 9.2714 10.8319 9.28204 10.8365 9.28482C10.8556 9.29588 10.8746 9.31064 10.8882 9.31878C10.9017 9.32693 10.9002 9.32022 10.897 9.31761C10.859 9.28719 10.8132 9.26069 10.7736 9.23244C10.7688 9.22897 10.7638 9.2255 10.7588 9.22212C10.7567 9.2208 10.7644 9.23034 10.7499 9.22032C10.7135 9.19496 10.6667 9.16341 10.6325 9.13616C10.6161 9.12305 10.6395 9.13636 10.6262 9.12415C10.6129 9.11168 10.6006 9.10946 10.5851 9.09057C10.5806 9.08523 10.558 9.05616 10.5369 9.04888C10.5345 9.04804 10.5315 9.0519 10.5287 9.05071C10.5167 9.04546 10.5088 9.03447 10.4963 9.0287C10.4935 9.02758 10.4963 9.03578 10.4902 9.03239C10.4581 9.01457 10.4127 8.99321 10.3904 8.96407C10.3878 8.96072 10.3851 8.9576 10.3822 8.95481C10.3602 8.93404 10.343 8.93248 10.3251 8.91957C10.3074 8.90668 10.3166 8.9047 10.3018 8.89371C10.2627 8.86454 10.2212 8.84296 10.1814 8.81194C10.1719 8.80456 10.169 8.79257 10.1556 8.78241C10.1465 8.77557 10.1237 8.78132 10.1194 8.77904C10.0689 8.75198 10.0254 8.71897 9.98173 8.68598C9.90576 8.62854 9.81882 8.60278 9.72944 8.56989C9.65608 8.5413 9.72471 8.50342 9.70742 8.47041C9.69188 8.44017 9.6441 8.43023 9.63159 8.42048C9.57128 8.37133 9.53479 8.32965 9.47596 8.29319C9.46429 8.28596 9.45446 8.30047 9.44318 8.29265C9.42282 8.2785 9.39852 8.25453 9.37964 8.24018C9.36784 8.23122 9.34254 8.24766 9.34084 8.24739C9.29002 8.23755 9.27416 8.19928 9.27859 8.16399C9.283 8.12875 9.25557 8.15426 9.25475 8.13074C9.2546 8.12347 9.26317 8.11687 9.26277 8.11248C9.25782 8.0798 9.21738 8.08741 9.20576 8.08433C9.1581 8.07157 9.11768 8.01729 9.09138 7.99626C9.06507 7.97539 9.09448 7.97442 9.09461 7.97209C9.0959 7.93716 9.06971 7.96709 9.06703 7.96647C8.99251 7.94784 8.96036 7.88761 8.89109 7.85629C8.88456 7.85351 8.84955 7.87926 8.8501 7.84254C8.85039 7.84006 8.86598 7.82975 8.85882 7.8219C8.8478 7.81021 8.83473 7.79963 8.82127 7.78941C8.79789 7.77164 8.76178 7.77841 8.73375 7.76966C8.69903 7.75883 8.71262 7.69841 8.6882 7.67146C8.66163 7.64213 8.63415 7.61082 8.61094 7.5967C8.5638 7.56822 8.53407 7.59882 8.49765 7.56161C8.49205 7.55583 8.51087 7.54173 8.50952 7.53967C8.47793 7.49392 8.46757 7.54371 8.43322 7.56997C8.4227 7.57805 8.41566 7.55039 8.40752 7.55165C8.38045 7.55589 8.36892 7.58115 8.34409 7.56357C8.34012 7.56078 8.33658 7.55785 8.33347 7.5548C8.30875 7.53052 8.26712 7.48523 8.24441 7.45906C8.24023 7.45407 8.26301 7.43867 8.25549 7.43052C8.19923 7.3709 8.13158 7.32125 8.0774 7.2593C8.07087 7.25138 8.09178 7.23652 8.09021 7.2342C8.06263 7.19412 8.05291 7.24448 8.0169 7.27295C7.9997 7.28623 7.9406 7.28813 7.92888 7.27498C7.91745 7.26186 7.93839 7.25947 7.9388 7.24627C7.93904 7.23331 7.9218 7.24622 7.92855 7.22636C7.9355 7.20617 8.00619 7.1416 7.96193 7.13098C7.91778 7.12064 7.91546 7.1666 7.86799 7.11644C7.84181 7.08872 7.82279 7.07955 7.77342 7.03874C7.72397 6.99814 7.62709 6.87519 7.54272 6.85582C7.53546 6.85418 7.52897 6.85905 7.52288 6.86682C7.49874 6.89759 7.49685 6.90458 7.50565 6.86647C7.51107 6.84258 7.47592 6.86621 7.48434 6.83053C7.48674 6.82054 7.50087 6.77587 7.4641 6.79215C7.46169 6.79334 7.45441 6.81659 7.44123 6.81116C7.41317 6.79933 7.39798 6.78502 7.40889 6.75659C7.41257 6.74701 7.41108 6.73935 7.3982 6.73486C7.39638 6.73429 7.38568 6.763 7.37513 6.7569C7.23946 6.67935 7.15125 6.55655 7.01944 6.46606C7.01632 6.46408 6.98003 6.45514 6.96613 6.45897C6.96378 6.45972 6.95492 6.48963 6.93947 6.47977C6.92391 6.46966 6.88384 6.44211 6.87317 6.42442C6.8625 6.40674 6.89052 6.39913 6.88563 6.3889C6.87409 6.36584 6.86849 6.40933 6.85042 6.40371C6.82592 6.39596 6.79535 6.36779 6.78103 6.34778C6.77173 6.33451 6.79231 6.32012 6.79332 6.31341C6.79991 6.26681 6.74008 6.29403 6.73184 6.29391C6.68254 6.29242 6.68214 6.25534 6.64834 6.24084C6.63979 6.23729 6.63392 6.25993 6.62711 6.25207C6.60184 6.22261 6.63136 6.12542 6.56982 6.14158C6.54367 6.14865 6.50824 6.25025 6.4873 6.18758C6.48425 6.17804 6.50343 6.16993 6.50235 6.15609C6.50107 6.14215 6.48884 6.0958 6.47213 6.1015C6.45535 6.10747 6.38532 6.2183 6.39651 6.15901C6.40465 6.11641 6.41952 6.10348 6.42021 6.0777C6.42092 6.05126 6.44365 6.0266 6.42753 6.00563C6.41558 5.99018 6.36109 5.95336 6.34989 5.94329C6.32207 5.91843 6.27756 5.99318 6.27004 5.99593C6.21435 6.01015 6.24994 5.94328 6.243 5.91044C6.23978 5.89635 6.22446 5.89915 6.22063 5.88555C6.21572 5.86585 6.22715 5.85364 6.2095 5.86367C6.17005 5.88609 6.11767 5.95556 6.11118 5.92318C6.1104 5.91784 6.14726 5.88611 6.14937 5.86365C6.15 5.85701 6.16302 5.77824 6.14506 5.7839C6.07344 5.80666 6.05562 5.85435 6.01018 5.80054C6.00646 5.79605 6.02886 5.7729 6.027 5.77062C5.99863 5.73395 5.96673 5.70027 5.93391 5.66943C5.81423 5.55688 5.66966 5.47548 5.54261 5.3716C5.51785 5.35136 5.47528 5.35724 5.4452 5.34637C5.4062 5.33229 5.41181 5.27752 5.4387 5.24595C5.44129 5.24291 5.44389 5.23988 5.44651 5.23686C5.47086 5.20871 5.46593 5.16485 5.48187 5.13121C5.49463 5.1043 5.52926 5.08854 5.54097 5.05449C5.54303 5.04754 5.50081 4.9982 5.5514 5.00959C5.55464 5.01049 5.56534 5.03698 5.58105 5.02271C5.68295 4.93038 5.77529 4.82092 5.84964 4.70652C5.86073 4.68944 5.826 4.68331 5.82906 4.67682C5.85829 4.62276 5.93343 4.6296 5.95629 4.5679C5.95792 4.56284 5.91973 4.51278 5.96527 4.52325C5.96819 4.52392 5.98588 4.54196 5.99185 4.53804C6.02034 4.5196 5.98118 4.48049 6.01176 4.46188C6.01876 4.45775 6.03325 4.48683 6.04542 4.47655C6.10006 4.42839 6.14725 4.36927 6.18684 4.30784C6.19415 4.29605 6.15784 4.2896 6.16625 4.27813C6.2045 4.22808 6.22416 4.18103 6.28981 4.14627C6.29859 4.14181 6.36919 4.14468 6.35569 4.10358C6.3539 4.09857 6.33313 4.08579 6.33694 4.0758C6.356 4.02692 6.39605 3.98756 6.41876 3.94081C6.4241 3.92976 6.39723 3.92204 6.39941 3.91388C6.41069 3.87743 6.41779 3.91834 6.44759 3.90465C6.53439 3.86446 6.52012 3.72122 6.5874 3.65323C6.61457 3.62579 6.65017 3.60339 6.67636 3.58348C6.68652 3.57597 6.69814 3.60458 6.70704 3.59606C6.79521 3.51104 6.86922 3.41522 6.93945 3.31469C6.94581 3.30532 6.91734 3.29683 6.9226 3.2892C6.97383 3.21699 7.03111 3.1616 7.08664 3.08954C7.13407 3.0279 7.17825 2.95409 7.22727 2.88876C7.29109 2.80421 7.36838 2.74111 7.42293 2.63897C7.42574 2.63309 7.42323 2.56886 7.45856 2.57127C7.46277 2.57149 7.47097 2.58571 7.48287 2.57748C7.4945 2.56954 7.52152 2.53649 7.5285 2.52188C7.5355 2.50721 7.51287 2.50561 7.51815 2.49711C7.54318 2.45755 7.58098 2.42311 7.60797 2.38842C7.62738 2.36336 7.63048 2.3587 7.6527 2.3341C7.66393 2.32159 7.68796 2.28555 7.70474 2.27026C7.71574 2.26028 7.74459 2.27598 7.73341 2.2662C7.729 2.26233 7.72082 2.2574 7.73145 2.24122C7.7778 2.1708 7.83902 2.0952 7.90471 2.03431C7.92102 2.01934 7.93532 2.04583 7.94242 2.0082C7.94269 2.0058 7.92865 2.00226 7.93489 1.99305C7.95984 1.95652 7.99065 1.91959 8.02071 1.88505C8.06027 1.83967 8.09691 1.79891 8.1308 1.75744C8.31093 1.53639 8.48579 1.31973 8.66551 1.10039C8.70131 1.05638 8.73467 1.01262 8.77065 0.970275C8.77752 0.962188 8.77293 0.974908 8.77948 0.967223C8.79872 0.944356 8.81505 0.9213 8.83402 0.898447C8.84352 0.886918 8.83844 0.89758 8.85282 0.87978C8.89765 0.824252 8.95504 0.750285 9.00082 0.695302C9.02073 0.671626 9.01502 0.676356 9.02533 0.664396C9.03518 0.653104 9.04301 0.645934 9.04935 0.639193C9.05549 0.632772 9.04942 0.637796 9.05264 0.634494C9.05569 0.631059 9.06695 0.621583 9.07376 0.61617M9.1816 8.21928C9.20543 8.18028 9.17945 8.16592 9.16456 8.20543C9.16329 8.20973 9.17926 8.21527 9.1816 8.21928ZM9.1816 8.21928C9.14028 8.24566 9.10898 8.23349 9.10404 8.17864C9.10191 8.15299 9.12851 8.14236 9.08113 8.12089C9.05963 8.11126 9.04795 8.14307 9.02558 8.13929C8.97425 8.13084 8.94154 8.07215 8.89858 8.0497C8.88293 8.04166 8.88598 8.06665 8.87486 8.06174C8.85315 8.05226 8.83936 8.03495 8.82133 8.022C8.80788 8.01234 8.79641 8.03346 8.78224 8.02488C8.71797 7.98657 8.67026 7.93962 8.60498 7.89658C8.57336 7.87574 8.50958 7.84893 8.47826 7.82566C8.42414 7.78575 8.37296 7.71143 8.32 7.68615C8.28541 7.66971 8.27844 7.69384 8.25548 7.69827C8.21097 7.70699 8.19746 7.63031 8.19653 7.61878M8.19653 7.61878C8.19663 7.6188 8.19841 7.61687 8.20097 7.61429C8.212 7.60317 8.21106 7.61292 8.19653 7.61878ZM8.19653 7.61878C8.19522 7.6111 8.1454 7.57117 8.13173 7.56766C8.12436 7.56588 8.11385 7.58733 8.11025 7.58605C8.03444 7.55851 7.96533 7.52171 7.90393 7.47329C7.88957 7.46197 7.90812 7.44314 7.89551 7.4299C7.86022 7.39189 7.81401 7.40127 7.76682 7.39453C7.76228 7.39388 7.75795 7.39308 7.75385 7.3921C7.69163 7.37736 7.66417 7.28569 7.6333 7.22969C7.61311 7.1931 7.55728 7.24908 7.52155 7.2274C7.48678 7.2063 7.46627 7.17313 7.42567 7.14157C7.39756 7.11969 7.3342 7.08722 7.29866 7.07108C7.27055 7.05842 7.26315 7.0371 7.23503 7.02874C7.23121 7.02764 7.21919 7.05109 7.21765 7.05127C7.17372 7.05963 7.22312 7.01545 7.22442 7.00252C7.2291 6.95556 7.22994 6.92907 7.1856 6.92248C7.17535 6.92093 7.09914 6.98172 7.08176 6.9771C7.05956 6.97058 7.08566 6.9478 7.06203 6.94163C7.05999 6.94113 7.04838 6.95798 7.03718 6.94938C6.98485 6.90953 6.93333 6.86033 6.87534 6.82361C6.86746 6.81857 6.85798 6.85245 6.84626 6.84558C6.79128 6.81334 6.73456 6.77356 6.69303 6.72616C6.68294 6.71444 6.70438 6.70043 6.70588 6.69281C6.71393 6.64681 6.65512 6.68069 6.64997 6.67944C6.53994 6.64091 6.50033 6.54515 6.39077 6.50267C6.38465 6.50044 6.30613 6.52876 6.32231 6.46904C6.32281 6.4671 6.32669 6.45293 6.32677 6.44059C6.32694 6.41378 6.29407 6.46299 6.27425 6.44493C6.25684 6.42928 6.21443 6.42477 6.20798 6.37909C6.20591 6.3646 6.22109 6.30232 6.16909 6.32415C6.16557 6.32573 6.06488 6.38772 6.09451 6.31744C6.09948 6.30584 6.14745 6.24289 6.09521 6.25553C6.0851 6.25809 6.08467 6.27951 6.06365 6.27832C6.03143 6.27643 6.01316 6.238 5.96496 6.2474C5.95637 6.24917 5.90452 6.27853 5.91159 6.23358C5.91294 6.22644 5.93288 6.20847 5.9259 6.19998C5.89258 6.15931 5.83925 6.14329 5.80812 6.09902C5.79711 6.08333 5.82926 6.05345 5.82049 6.03318C5.81142 6.01271 5.78628 5.98153 5.75863 5.98604C5.73102 5.99075 5.70914 6.05882 5.68158 6.04605C5.67814 6.04445 5.67473 6.04279 5.67135 6.04111C5.55744 5.98447 5.47816 5.88149 5.37896 5.80353C5.36393 5.79171 5.36259 5.82075 5.33951 5.80486C5.29907 5.77701 5.2412 5.74192 5.18713 5.70265C5.14288 5.6705 5.08174 5.67167 5.03747 5.70379C5.03502 5.70544 5.01318 5.68283 5.00857 5.68641C4.95342 5.73015 4.99964 5.75008 5.0202 5.82254C5.02527 5.84084 4.94642 5.82502 4.94036 5.82425C4.918 5.82131 4.88736 5.784 4.88209 5.78471C4.84977 5.7901 4.91795 5.84438 4.93889 5.88452C4.94843 5.90281 4.93674 5.89107 4.91652 5.89511C4.90271 5.89861 4.90509 5.91417 4.89077 5.91687C4.85777 5.92283 4.79238 5.88478 4.80507 5.94058C4.80679 5.94773 4.88133 5.99477 4.85512 6.02276C4.84446 6.03399 4.80532 6.08767 4.78986 6.09867C4.78653 6.10103 4.78332 6.10161 4.78018 6.10113C4.77227 6.10005 4.76527 6.09223 4.76125 6.08723C4.75934 6.0849 4.75802 6.08331 4.75758 6.08339C4.73341 6.08764 4.7083 6.09059 4.68587 6.08064C4.67379 6.07529 4.65976 6.06864 4.63729 6.06376C4.57846 6.05098 4.68644 6.1238 4.69245 6.14092C4.69784 6.15792 4.65208 6.16809 4.6379 6.16926C4.62384 6.17024 4.61632 6.15012 4.60658 6.15305C4.54289 6.17271 4.64432 6.21097 4.65029 6.23748C4.6644 6.29984 4.56877 6.26665 4.53784 6.29211C4.52964 6.29883 4.55209 6.30533 4.54841 6.31384C4.53272 6.34778 4.49709 6.34574 4.49363 6.39614C4.49339 6.40478 4.51892 6.46473 4.47284 6.45673C4.46618 6.4555 4.45199 6.43475 4.43871 6.44364C4.41905 6.4567 4.38914 6.48814 4.38114 6.5122C4.37514 6.53014 4.41882 6.53689 4.39565 6.54784C4.38542 6.55245 4.37807 6.52443 4.36036 6.53459C4.34224 6.54532 4.31386 6.58529 4.30379 6.60035C4.28968 6.6215 4.32646 6.64016 4.32066 6.66492C4.31879 6.67295 4.31682 6.67928 4.31606 6.68057C4.22521 6.80967 4.10069 6.89981 4.02618 7.03535C4.02313 7.04108 4.0305 7.04675 4.03763 7.05098C4.04491 7.05529 4.04893 7.0637 4.04183 7.06831C4.03791 7.07086 4.03302 7.07051 4.02744 7.06846C3.99882 7.05794 3.98464 7.07387 3.97356 7.10228C3.96582 7.12239 4.00688 7.14633 3.98557 7.14951C3.97501 7.15108 3.96023 7.14706 3.95505 7.14599C3.91908 7.13872 3.94427 7.17265 3.92002 7.16826C3.88145 7.16098 3.88858 7.1626 3.92035 7.18566C3.92836 7.19147 3.93349 7.19778 3.93213 7.20508C3.91598 7.28919 3.80078 7.39047 3.76487 7.44388C3.72885 7.49622 3.72185 7.51603 3.69728 7.54491C3.65347 7.59716 3.69921 7.59432 3.69506 7.63855C3.69092 7.68295 3.61721 7.62225 3.59634 7.61811C3.57574 7.61413 3.59103 7.62943 3.57803 7.63108C3.56485 7.63265 3.55971 7.61199 3.54821 7.62547C3.53659 7.63934 3.54729 7.69842 3.56326 7.71307C3.58545 7.73339 3.61492 7.74105 3.62277 7.75327C3.63349 7.76994 3.59943 7.7554 3.58647 7.77039C3.53443 7.83373 3.49811 7.90909 3.45073 7.97555C3.44417 7.98445 3.42466 7.96524 3.42061 7.97038C3.40954 7.98465 3.40484 7.99515 3.40436 8.00357C3.40353 8.0286 3.39578 8.0478 3.37257 8.0572C3.35818 8.06302 3.34684 8.07506 3.33935 8.09367C3.32802 8.12186 3.35517 8.12741 3.36548 8.15272C3.36829 8.16035 3.34346 8.17311 3.35368 8.18139C3.37945 8.20233 3.41517 8.2067 3.41356 8.22583C3.41212 8.2429 3.38637 8.227 3.37697 8.24132C3.34867 8.2863 3.38536 8.30822 3.36813 8.36121C3.35949 8.38762 3.33526 8.42114 3.31267 8.45386C3.292 8.4838 3.2302 8.48484 3.22761 8.52113C3.22551 8.55046 3.24046 8.58411 3.22844 8.61095C3.2219 8.62557 3.2149 8.63996 3.20616 8.65338C3.20011 8.66269 3.18631 8.64979 3.18387 8.65019C3.14788 8.65846 3.18081 8.68692 3.17961 8.69401C3.1645 8.77008 3.1143 8.81262 3.11256 8.89156C3.11256 8.89432 3.14783 8.91307 3.11343 8.91987C3.11113 8.92027 3.10336 8.89177 3.08913 8.92228C3.07483 8.95246 3.03194 9.00327 3.02996 9.05403C3.02974 9.06638 3.04616 9.10366 3.01574 9.11571C3.01159 9.11716 3.00305 9.11025 2.996 9.11207C2.97349 9.11819 3.00479 9.13884 2.96954 9.14257C2.934 9.14699 2.90028 9.17228 2.90256 9.22365C2.90261 9.22527 2.92431 9.24604 2.9186 9.25939C2.9094 9.28021 2.89103 9.31021 2.88187 9.33364C2.87758 9.34474 2.89563 9.34387 2.89526 9.34589C2.87386 9.42253 2.83839 9.47113 2.80187 9.54696C2.79573 9.55976 2.79626 9.61107 2.77059 9.63298C2.7426 9.65756 2.68957 9.5998 2.6792 9.67754C2.66801 9.77229 2.66353 9.86309 2.62573 9.95069C2.60391 10.0012 2.58214 10.0515 2.56797 10.1068C2.5667 10.1117 2.57733 10.1328 2.57291 10.1434C2.56617 10.159 2.55527 10.1647 2.55047 10.1754C2.52952 10.2224 2.51905 10.2665 2.49972 10.3124C2.49264 10.3294 2.48827 10.3208 2.48003 10.341C2.47155 10.3622 2.47426 10.3796 2.45983 10.4049C2.45781 10.4084 2.45545 10.4118 2.45286 10.4151C2.42987 10.4442 2.41982 10.4935 2.41023 10.5293C2.4085 10.536 2.41562 10.531 2.41518 10.5341C2.41246 10.5479 2.4042 10.558 2.40212 10.5704C2.40162 10.5734 2.40578 10.5753 2.4057 10.578C2.40328 10.6018 2.38057 10.63 2.37659 10.636C2.36215 10.6554 2.36315 10.6677 2.35429 10.6837C2.34573 10.6993 2.35238 10.6739 2.34382 10.6923C2.32557 10.7323 2.30643 10.7852 2.28995 10.8265C2.28363 10.8424 2.29097 10.8334 2.29039 10.8354C2.2817 10.8583 2.27107 10.8802 2.26406 10.8985C2.25841 10.9143 2.24668 10.9285 2.24317 10.9449C2.24122 10.954 2.24022 10.9666 2.22818 10.9924C2.22633 10.9961 2.22046 10.9989 2.22519 10.9839C2.22993 10.9688 2.23971 10.9467 2.246 10.9256C2.24716 10.9216 2.25005 10.9037 2.25152 10.8932C2.25219 10.8895 2.25259 10.8868 2.25284 10.8858C2.25931 10.8598 2.28425 10.8433 2.29065 10.8173C2.29331 10.8065 2.29487 10.7967 2.29594 10.7925C2.30807 10.7499 2.32254 10.716 2.33231 10.6801C2.3384 10.6572 2.32737 10.649 2.3332 10.632C2.35336 10.5722 2.38127 10.5604 2.3824 10.4968C2.38247 10.4833 2.36081 10.4892 2.38876 10.45C2.39058 10.4472 2.41395 10.4216 2.41199 10.3991C2.41153 10.3963 2.40632 10.3943 2.40683 10.391C2.41041 10.3691 2.41884 10.3579 2.42412 10.334C2.42973 10.3092 2.43391 10.2833 2.4447 10.2574C2.4513 10.2413 2.46939 10.2276 2.47505 10.2213C2.49083 10.2044 2.4841 10.1754 2.49952 10.1668C2.50515 10.1639 2.50977 10.166 2.51428 10.1686C2.53039 10.1776 2.5281 10.1527 2.51184 10.1439C2.4987 10.1368 2.49232 10.1212 2.49731 10.1071C2.52104 10.0401 2.54756 9.97787 2.56937 9.91072C2.57239 9.90122 2.55705 9.90592 2.55995 9.89553C2.57213 9.85167 2.59239 9.82077 2.60406 9.77392C2.62066 9.70464 2.64982 9.63065 2.67495 9.564C2.67587 9.56156 2.67681 9.55917 2.67778 9.55684C2.68336 9.54372 2.6914 9.54765 2.69751 9.53913C2.72024 9.50728 2.68616 9.51316 2.68491 9.50166C2.67926 9.45266 2.7456 9.47507 2.76236 9.42473C2.7633 9.42181 2.73883 9.37478 2.73772 9.3699C2.73225 9.3369 2.75179 9.37036 2.7605 9.35465C2.7764 9.32507 2.79372 9.30623 2.7961 9.26337C2.79689 9.25012 2.78138 9.21568 2.80741 9.20221C2.81093 9.20055 2.82324 9.20705 2.82478 9.20514C2.85188 9.17008 2.81094 9.15224 2.80468 9.12293C2.79858 9.09344 2.83979 9.06883 2.85108 9.06533C2.87006 9.05884 2.87636 9.09827 2.88494 9.08013C2.88766 9.07438 2.89016 9.06762 2.89312 9.06166M2.89312 9.06166C2.93644 9.0758 2.94446 9.04739 2.90276 9.04199C2.89819 9.04149 2.89649 9.0585 2.89312 9.06166ZM2.89312 9.06166C2.85783 9.02776 2.86223 8.99452 2.91477 8.97621C2.93936 8.96791 2.95604 8.99107 2.96603 8.93985C2.97005 8.91736 2.9365 8.91293 2.9349 8.89066C2.93098 8.83987 2.98132 8.79244 2.99322 8.74557C2.99715 8.72898 2.9741 8.73744 2.97624 8.72572C2.98179 8.69443 3.00453 8.67366 3.00844 8.64066C3.00865 8.63766 2.98722 8.63651 2.9903 8.627C3.014 8.55265 3.04726 8.49959 3.07483 8.42449C3.08838 8.3876 3.0995 8.32027 3.11495 8.28449C3.1415 8.22241 3.20278 8.15386 3.21467 8.09803C3.22265 8.06089 3.19763 8.05956 3.18804 8.03831C3.16932 7.99707 3.24073 7.96512 3.25233 7.96108M3.25233 7.96108C3.25233 7.96117 3.25446 7.96238 3.25739 7.96419C3.26444 7.96852 3.26046 7.95957 3.25233 7.96108ZM3.25233 7.96108C3.25439 7.96033 3.25838 7.95454 3.26286 7.94649L3.265 7.94162C3.27645 7.92242 3.29126 7.89114 3.29209 7.88068C3.29243 7.87306 3.27008 7.86701 3.27028 7.86317C3.2832 7.78213 3.30782 7.70457 3.34754 7.63258C3.3565 7.61635 3.37774 7.63215 3.38915 7.61754C3.42233 7.57486 3.40678 7.52893 3.40825 7.47937C3.40838 7.47484 3.40869 7.47049 3.40919 7.46631C3.41704 7.3997 3.50746 7.35881 3.56267 7.32072C3.58726 7.30335 3.54095 7.27187 3.54121 7.26908C3.54763 7.18494 3.59686 7.16387 3.6411 7.10057C3.66257 7.0698 3.69352 7.0041 3.70935 6.96721C3.72224 6.93724 3.74297 6.92994 3.75154 6.90061C3.75652 6.88206 3.72242 6.85869 3.74015 6.86609C3.7525 6.87125 3.77067 6.88789 3.77823 6.88842C3.82537 6.89222 3.85167 6.89276 3.85825 6.84736C3.85952 6.83716 3.79812 6.76138 3.80326 6.74358C3.80587 6.73482 3.81091 6.73325 3.81646 6.73329C3.8355 6.73343 3.81981 6.71346 3.83122 6.69821C3.87222 6.64387 3.9227 6.59123 3.96018 6.53319C3.96539 6.52519 3.93133 6.51562 3.9385 6.50368C3.97143 6.44869 4.01246 6.39153 4.06119 6.34987C4.07336 6.33957 4.08694 6.36153 4.0946 6.36309C4.14504 6.3716 4.11569 6.2811 4.14579 6.23974C4.19305 6.1748 4.25771 6.13429 4.29391 6.04899C4.29579 6.04215 4.27028 5.96387 4.32948 5.98093C4.33344 5.98206 4.39409 6.00036 4.37307 5.96052C4.37155 5.95803 4.33927 5.94977 4.35517 5.93334C4.37102 5.91679 4.3766 5.8747 4.42285 5.86899C4.43102 5.86797 4.45404 5.87252 4.4694 5.86753C4.48116 5.86396 4.48813 5.85447 4.47913 5.83136C4.47739 5.82752 4.41874 5.72565 4.48808 5.75676C4.49954 5.76195 4.56107 5.81195 4.55055 5.75849C4.54834 5.74824 4.52706 5.74724 4.52879 5.72637C4.53139 5.69437 4.56993 5.67785 4.56221 5.62911C4.56063 5.62063 4.53327 5.56713 4.57754 5.57586C4.58454 5.5772 4.6023 5.59799 4.61097 5.59131C4.65215 5.55985 4.67076 5.5052 4.71601 5.47545C4.73204 5.46486 4.76087 5.49799 4.78144 5.48976C4.80202 5.48149 4.83391 5.45739 4.83036 5.42946C4.83008 5.42731 4.82935 5.42524 4.82832 5.42318C4.82678 5.4201 4.82236 5.42137 4.8193 5.4198C4.78884 5.40421 4.76868 5.37228 4.74042 5.35468C4.72784 5.34698 4.7161 5.36799 4.70626 5.35845C4.69148 5.34438 4.67932 5.32921 4.66924 5.31089C4.6563 5.28736 4.68687 5.26008 4.66608 5.24308C4.63606 5.21895 4.60992 5.17312 4.56181 5.16558C4.54729 5.16361 4.51594 5.20634 4.51427 5.15935C4.51432 5.14919 4.5568 5.10185 4.49852 5.1273C4.48865 5.13158 4.4014 5.15921 4.40717 5.10407C4.40792 5.09694 4.41188 5.08052 4.41371 5.06529C4.41611 5.04532 4.4009 5.06432 4.3826 5.05598C4.34055 5.03628 4.30377 5.00516 4.26012 4.98356C4.24859 4.97808 4.24704 5.01301 4.23035 5.00379C4.18436 4.97836 4.13691 4.93351 4.10203 4.89608C4.08937 4.88234 4.11281 4.87084 4.11353 4.86784C4.12019 4.82127 4.07785 4.85851 4.06971 4.8572C4.02198 4.8456 4.00926 4.80323 3.97215 4.78377C3.95566 4.77504 3.93691 4.8014 3.9467 4.78552C3.95046 4.7794 3.95335 4.7731 3.95036 4.76851C3.92512 4.73105 3.888 4.70557 3.85121 4.68187C3.83792 4.67339 3.83473 4.70843 3.82307 4.70069C3.753 4.65371 3.68785 4.59975 3.63208 4.53699C3.62186 4.52514 3.64212 4.51277 3.64247 4.5067C3.64494 4.46453 3.59176 4.48424 3.58332 4.48341C3.5447 4.47997 3.54548 4.45635 3.52012 4.44137C3.39525 4.36778 3.26129 4.24759 3.15667 4.15751C3.02194 4.04086 2.92101 3.9408 2.78529 3.84135C2.77683 3.83513 2.77167 3.86081 2.76426 3.85592C2.70595 3.8144 2.65076 3.7687 2.59753 3.72576C2.55819 3.69427 2.51934 3.66382 2.4798 3.63566C2.47194 3.63002 2.47144 3.65513 2.4585 3.64653C2.43278 3.6296 2.39908 3.6014 2.37714 3.57585C2.36635 3.56338 2.39251 3.563 2.38134 3.55077C2.35491 3.52206 2.3262 3.49782 2.29278 3.47538C2.27897 3.46618 2.28815 3.49708 2.27103 3.4837C2.15712 3.39514 2.04283 3.30516 1.94061 3.19815C1.93476 3.19201 1.94023 3.17013 1.93162 3.15764C1.92774 3.152 1.9199 3.15367 1.91567 3.15906C1.90994 3.16635 1.89949 3.16805 1.89212 3.16242C1.72768 3.03695 1.57436 2.90363 1.40969 2.77565C1.40276 2.77021 1.40884 2.7884 1.39546 2.77779C1.31611 2.71543 1.23903 2.65663 1.16131 2.58799C1.15382 2.58123 1.16438 2.5729 1.1398 2.55732C1.13592 2.55483 1.09716 2.52902 1.08723 2.52464C1.08585 2.52409 1.08921 2.5334 1.07796 2.52515C1.0104 2.47565 0.938397 2.42089 0.870221 2.37264C0.858849 2.36469 0.872393 2.37027 0.864326 2.36469C0.808557 2.32685 0.745162 2.28865 0.685732 2.26284C0.68523 2.26262 0.68458 2.26222 0.684087 2.26201C0.671886 2.25677 0.664776 2.25355 0.660198 2.25139C0.645105 2.24425 0.629001 2.23176 0.612846 2.23599M0.612013 2.23763L0.612846 2.23599C0.615455 2.2312 0.619563 2.2314 0.623126 2.23234C0.627395 2.23346 0.630951 2.23328 0.635322 2.2339C0.644613 2.23523 0.654703 2.23792 0.669886 2.24092C0.68111 2.24311 0.680707 2.24216 0.691805 2.24417C0.695536 2.24481 0.701409 2.24604 0.709301 2.24783C0.780937 2.26398 0.869992 2.30065 0.935072 2.33051C0.956339 2.34041 0.944149 2.33733 0.958056 2.34406C0.985914 2.35777 1.01159 2.36834 1.0382 2.38237C1.04675 2.38693 1.03365 2.38579 1.04264 2.39057C1.09361 2.41801 1.1408 2.44046 1.19234 2.46868C1.44025 2.60558 1.68055 2.75069 1.92162 2.90116C2.00222 2.95133 2.09196 3.02147 2.17916 3.06849C2.18937 3.07385 2.19118 3.05935 2.19369 3.05957C2.23295 3.06351 2.2072 3.07971 2.22378 3.09433C2.28988 3.15234 2.37107 3.20624 2.44692 3.24713C2.47937 3.2646 2.46609 3.21987 2.48694 3.25318C2.48835 3.25547 2.47176 3.26447 2.47886 3.27109C2.49499 3.28602 2.53204 3.30604 2.54603 3.31655C2.57276 3.33684 2.57757 3.33997 2.60456 3.35754C2.64098 3.38135 2.67793 3.41569 2.71984 3.43796C2.72866 3.44236 2.72832 3.41999 2.74355 3.42592C2.75359 3.42985 2.77208 3.44149 2.78642 3.45244C2.79359 3.45795 2.79974 3.46328 2.80287 3.46715C2.81182 3.47825 2.79844 3.48767 2.79825 3.49193C2.79822 3.52726 2.86196 3.5199 2.86801 3.52233C2.97596 3.57098 3.04015 3.64138 3.13099 3.70143C3.1968 3.74452 3.27676 3.78692 3.3393 3.8295C3.41325 3.87997 3.4744 3.93591 3.5474 3.98195C3.55524 3.98692 3.56229 3.95811 3.57191 3.96378C3.67585 4.02846 3.77453 4.09713 3.8646 4.18184C3.87364 4.19039 3.84554 4.20311 3.85361 4.21298C3.87502 4.23841 3.89894 4.2729 3.92749 4.2986C3.9984 4.36244 4.14007 4.34145 4.18366 4.42633C4.1986 4.45549 4.15825 4.46448 4.19508 4.47412C4.20326 4.47582 4.20986 4.44881 4.22102 4.45345C4.26845 4.47396 4.31128 4.51376 4.35997 4.53008C4.36991 4.53315 4.38148 4.51227 4.3864 4.51007C4.42675 4.49458 4.42653 4.56504 4.43131 4.57368C4.46828 4.63766 4.51716 4.65619 4.56829 4.69223C4.57989 4.70021 4.58518 4.66392 4.59701 4.67031C4.65912 4.70694 4.71999 4.7521 4.77057 4.80525C4.7814 4.81712 4.75307 4.8325 4.75749 4.83939C4.77768 4.86942 4.81451 4.82879 4.83386 4.85627C4.83794 4.86205 4.82057 4.88044 4.81992 4.88344C4.81094 4.92912 4.85942 4.88923 4.86461 4.89054C4.92663 4.91086 4.92277 4.98643 4.9781 5.01397C4.98472 5.01673 4.98971 4.98178 5.00725 4.99236C5.02034 5.00022 5.03698 4.99747 5.04573 4.98495C5.10686 4.89751 5.18963 4.7693 5.27606 4.73268C5.35362 4.69959 5.32244 4.7915 5.3699 4.75734C5.39246 4.74098 5.34803 4.67125 5.34976 4.66427C5.36859 4.59945 5.42364 4.58477 5.45 4.53389C5.45536 4.52336 5.4235 4.5135 5.42838 4.50475C5.44513 4.47467 5.47849 4.4548 5.49679 4.42753C5.50487 4.41531 5.48468 4.40299 5.49417 4.39354C5.51741 4.37083 5.54323 4.35442 5.58041 4.34315C5.5838 4.34213 5.59526 4.37498 5.61092 4.35687C5.63622 4.32757 5.68357 4.30297 5.69328 4.25474C5.69605 4.24031 5.65373 4.20724 5.70067 4.20737C5.71052 4.20739 5.7567 4.25229 5.73334 4.19301C5.72935 4.18294 5.70538 4.09428 5.76039 4.10211C5.76754 4.10313 5.78367 4.10773 5.7987 4.11014C5.81875 4.11336 5.80033 4.09757 5.80917 4.07929C5.83081 4.03753 5.86388 4.00119 5.88682 3.95888C5.89287 3.94756 5.85819 3.94477 5.86798 3.92849C5.89509 3.88367 5.94218 3.83769 5.98154 3.80363C5.9961 3.79114 6.00663 3.81538 6.00955 3.81593C6.05635 3.8241 6.01998 3.77977 6.02206 3.77216C6.03543 3.72522 6.07827 3.7145 6.09947 3.67801C6.10898 3.66177 6.08324 3.64174 6.09889 3.65219C6.10489 3.6562 6.11112 3.65933 6.11588 3.65639C6.15442 3.63267 6.18286 3.59497 6.20752 3.56011C6.21616 3.54739 6.18157 3.54262 6.18973 3.53141C6.23941 3.46397 6.29779 3.39975 6.36319 3.34694C6.3755 3.3371 6.38688 3.35788 6.39295 3.35855C6.43474 3.36318 6.41766 3.30963 6.41873 3.30083C6.42406 3.26239 6.44784 3.26392 6.46436 3.23887C6.54471 3.11686 6.67317 2.98805 6.76926 2.88857C6.89518 2.75853 7.00003 2.66573 7.11086 2.53404C7.11782 2.52582 7.09237 2.51922 7.09798 2.51197C7.17491 2.41848 7.26313 2.33499 7.34039 2.24271C7.34681 2.23511 7.3211 2.23274 7.33114 2.21999C7.3517 2.19373 7.38161 2.16406 7.40914 2.14409C7.42236 2.13456 7.42056 2.16046 7.43352 2.15065C7.46369 2.12762 7.4938 2.09716 7.51806 2.06723C7.52842 2.05441 7.49676 2.06046 7.51148 2.0448C7.61242 1.93653 7.71221 1.83333 7.83384 1.74048C7.8373 1.738 7.84449 1.73881 7.85239 1.73946C7.86004 1.73991 7.86832 1.73995 7.87483 1.7364C7.88082 1.73312 7.88008 1.72518 7.8752 1.72039C7.86863 1.71394 7.86819 1.70344 7.87461 1.69684C8.02019 1.54723 8.17336 1.41113 8.3258 1.26585C8.33229 1.25972 8.31339 1.26334 8.32591 1.2516C8.4001 1.18183 8.4711 1.11451 8.55317 1.04941C8.5614 1.04282 8.56725 1.05489 8.5877 1.03284C8.59118 1.02904 8.62302 0.996664 8.63014 0.986792C8.63097 0.985499 8.62114 0.98744 8.63187 0.977499C8.69467 0.919437 8.76285 0.860712 8.82825 0.806217C8.83912 0.797084 8.83003 0.809214 8.83774 0.802673C8.89085 0.757214 8.94692 0.706797 8.99982 0.666268C9.03509 0.639306 9.02335 0.650192 9.04247 0.636286C9.04534 0.63402 9.06601 0.61901 9.06844 0.617856C9.07038 0.616752 9.07096 0.618134 9.07279 0.616851C9.07311 0.616627 9.07343 0.616399 9.07376 0.61617M9.07376 0.61617C9.0762 0.614229 9.0787 0.612385 9.07947 0.61198M9.07376 0.61617C9.07566 0.614832 9.0777 0.613142 9.07947 0.61198M0.612013 2.23763C0.613645 2.24067 0.629487 2.25086 0.630147 2.25129C0.629969 2.25118 0.628639 2.25043 0.625708 2.24868C0.624767 2.24811 0.623843 2.24751 0.622894 2.24696C0.620731 2.24571 0.61647 2.24322 0.61217 2.23921C0.61173 2.2388 0.611668 2.23813 0.612013 2.23763ZM0.612013 2.23763C0.611976 2.2376 0.612048 2.23767 0.612013 2.23763ZM0.612013 2.23763C0.611017 2.23659 0.610602 2.23522 0.610975 2.23661C0.611109 2.23711 0.611516 2.23749 0.612013 2.23763ZM9.07947 0.61198C9.08083 0.611124 9.08081 0.611097 9.07947 0.61198ZM9.07947 0.61198C9.07962 0.611897 9.07931 0.612075 9.07947 0.61198ZM11.0275 9.4122C10.9594 9.36652 10.9235 9.33142 10.9947 9.3854C11.0077 9.39501 10.9659 9.3659 10.9822 9.37824C11.0127 9.40046 11.0336 9.41446 11.0645 9.43751C11.0601 9.43441 11.0311 9.41435 11.0275 9.4122ZM2.37145 10.5919C2.36391 10.601 2.35651 10.6344 2.36598 10.6225C2.37397 10.6124 2.38108 10.5807 2.37145 10.5919ZM10.5415 9.08516C10.5487 9.09491 10.5791 9.10977 10.5699 9.09775C10.5626 9.08794 10.5326 9.07291 10.5415 9.08516ZM10.2946 8.92118C10.2702 8.89155 10.2394 8.92505 10.2779 8.9391C10.2802 8.93992 10.2961 8.92289 10.2946 8.92118ZM2.47122 10.3122C2.49411 10.2817 2.4544 10.2595 2.45001 10.3002C2.44976 10.3026 2.46966 10.3138 2.47122 10.3122ZM10.0143 8.74776C9.99819 8.71545 9.96452 8.72533 9.9752 8.74903C9.98619 8.7722 10.0192 8.7574 10.0143 8.74776ZM2.56267 9.95983C2.54296 9.97541 2.56502 10.004 2.57332 9.9969C2.6006 9.97435 2.58307 9.94406 2.56267 9.95983ZM6.58165 6.29378C6.56971 6.31185 6.57723 6.31907 6.58641 6.31183C6.59606 6.30422 6.58846 6.28355 6.58165 6.29378ZM4.49745 6.24568C4.47279 6.22853 4.46771 6.24954 4.49377 6.26093C4.49532 6.26161 4.505 6.25104 4.49745 6.24568ZM5.92906 5.73545C5.89605 5.75666 5.91113 5.787 5.93188 5.79214C5.96308 5.79987 5.95765 5.72077 5.92906 5.73545ZM5.04413 5.64382C5.00608 5.63086 5.01502 5.5989 5.03505 5.58957C5.06463 5.57581 5.07498 5.65443 5.04413 5.64382Z" stroke="black" stroke-width="1.22142"/>
</svg>
